<?xml xmlns="http://www.w3.org/2000/svg" version="1.0" encoding="UTF-8" standalone="no"?>

<svg
   xmlns:dc="http://purl.org/dc/elements/1.1/"
   xmlns:cc="http://creativecommons.org/ns#"
   xmlns:rdf="http://www.w3.org/1999/02/22-rdf-syntax-ns#"
   xmlns:svg="http://www.w3.org/2000/svg"
   xmlns="http://www.w3.org/2000/svg">
  <g id="layer1">
    <path
       style="fill:none;stroke:#000042;stroke-width:1.16000009;stroke-linecap:butt;stroke-linejoin:miter;stroke-miterlimit:4;stroke-dasharray:none;stroke-opacity:1"
       d="m 7.0311322,98.741576 7.4386208,-30.7536 13.814583,-31.53925 26.035177,-32.0738133 30.285814,37.4194433 11.68926,36.35033 17.781923,17.64069"
       id="path4535"/>
    <path
       style="fill:none;stroke:#000042;stroke-width:0.76499999;stroke-linecap:butt;stroke-linejoin:miter;stroke-miterlimit:4;stroke-dasharray:none;stroke-opacity:1"
       d="M 27.880825,36.983926 48.193308,26.827683 47.12423,41.794776 59.418629,28.431293 l 13.363474,11.225323 -0.534537,-8.018082 5.87993,1.603622"
       id="path4537" />
    <path
       style="fill:#00ffff;stroke:#000000;stroke-width:0;stroke-miterlimit:4;stroke-dasharray:none;stroke-dashoffset:0;stroke-opacity:1"
       d="m 10.968028,84.135386 3.87948,-15.64189 6.744667,-15.99033 7.68012,-15.72306 9.182486,-4.60736 c 8.909111,-4.470193 9.712108,-5.912893 9.551596,-4.908603 -0.306202,1.91586 -1.551654,15.111483 -1.371163,15.292783 0.256108,0.25726 2.169435,-1.69142 6.55149,-6.67251 2.107306,-2.39539 4.39995,-4.903454 5.094754,-5.573474 l 1.2633,-1.218229 6.781308,5.725043 6.781316,5.72504 -0.03166,-3.99344 c -0.33338,-2.12289 -0.476663,-4.08339 -0.367242,-4.1933 0.109432,-0.10992 1.94591,0.27127 2.774416,0.52077 1.260636,0.37939 2.081569,1.16896 5.032192,4.83992 l 3.525819,4.38655 5.873539,18.19337 5.87353,18.19336 3.55192,3.44344 c 1.953554,1.8939 6.051644,5.81361 9.106864,8.71049 l 5.46045,5.26703 -0.26089,0.42689 c -3.57362,0.13084 -27.710657,2.80722 -53.060418,2.83259 -37.43172,0.0375 -53.5145808,-0.0819 -53.2530228,-0.38088 2.0978821,-5.24771 2.6274202,-10.54122 3.6351488,-14.65424 z"
       id="path4547"
      />
  </g>
</svg>
